#N canvas 570 253 892 631 10;
#X obj 25 -70 +~ 1;
#X obj 195 -200 loadbang;
#X obj 79 -174 metro 50;
#X obj 25 -96 osc~ 0.05;
#X obj 195 -96 until;
#X msg 195 -148 10;
#X obj 195 -18 i;
#X obj 227 -18 + 1;
#X obj 195 34 pack f f;
#X msg 210 -44 1;
#N canvas 0 22 763 508 (subpatch) 0;
#X array \$0-scale 7 float 1;
#A 0 0 1 3 5 7 9 10;
#X coords 0 12 6 0 200 140 1;
#X restore 480 -96 graph;
#X obj 259 -18 +;
#X obj 259 -148 random 7;
#X obj 195 -174 metro 5000;
#X obj 198 116 hsl 128 15 0 1 0 1 empty empty empty -2 -8 0 10 -262144
-1 -1 6000 1;
#X obj 114 397 writesf~ 2;
#X msg 26 371 start;
#X msg 74 371 stop;
#X obj 274 -70 * 12;
#X obj 274 -96 random 3;
#X obj 25 -44 *~ 500;
#X obj 93 -96 random 2;
#X obj 112 8 line;
#X obj 97 34 +~;
#X obj 690 -96 load_scale;
#X text 213 116 Reverb Feedback;
#X obj 259 -122 tabread \$0-scale;
#X obj 690 154 tabwrite \$0-scale;
#X msg 124 371 open -bytes 4 Cave_Of_Creation.wav;
#X obj 274 -44 +;
#X obj 195 -70 t b b b;
#X obj 195 -122 t f b b;
#X obj 93 -70 sel;
#X obj 97 60 s~ to_snapshot;
#X obj 79 -148 s bang_from_metro;
#X obj 336 -70 sel;
#X msg 336 -44 36;
#X obj 336 -96 random 4;
#X obj 37 141 catch~ left;
#X obj 310 141 catch~ right;
#X obj 281 34 pack f f;
#X obj 326 8 + 12;
#X obj 281 60 s to_route_2;
#X obj 195 60 s to_route_1;
#N canvas 0 472 1257 411 water_drops_low 0;
#X obj 242 55 snapshot~;
#X obj 349 55 route 1 2 3 4 5 6 7 8 9 10;
#X obj 242 3 r bang_from_metro;
#X obj 251 29 r~ to_snapshot;
#X obj 349 29 r to_route_1;
#X obj 214 81 stream 16000 200 12 600;
#X obj 214 107 stream 16000 200 12 600;
#X obj 214 133 stream 16000 200 12 600;
#X obj 214 159 stream 16000 200 12 600;
#X obj 214 185 stream 16000 200 12 600;
#X obj 214 211 stream 16000 200 12 600;
#X obj 214 237 stream 16000 200 12 600;
#X obj 214 263 stream 16000 200 12 600;
#X obj 214 289 stream 16000 200 12 600;
#X obj 214 315 stream 16000 200 12 600;
#X connect 0 0 5 0;
#X connect 0 0 6 0;
#X connect 0 0 7 0;
#X connect 0 0 8 0;
#X connect 0 0 9 0;
#X connect 0 0 10 0;
#X connect 0 0 11 0;
#X connect 0 0 12 0;
#X connect 0 0 13 0;
#X connect 0 0 14 0;
#X connect 1 0 5 1;
#X connect 1 1 6 1;
#X connect 1 2 7 1;
#X connect 1 3 8 1;
#X connect 1 4 9 1;
#X connect 1 5 10 1;
#X connect 1 6 11 1;
#X connect 1 7 12 1;
#X connect 1 8 13 1;
#X connect 1 9 14 1;
#X connect 2 0 0 0;
#X connect 3 0 0 0;
#X connect 4 0 1 0;
#X restore 568 54 pd water_drops_low;
#X msg 93 -18 300 2500;
#N canvas 0 508 1257 411 water_drops_high 0;
#X obj 242 55 snapshot~;
#X obj 349 55 route 1 2 3 4 5 6 7 8 9 10;
#X obj 242 3 r bang_from_metro;
#X obj 251 29 r~ to_snapshot;
#X obj 349 29 r to_route_3;
#X obj 214 81 stream 16000 200 2 100;
#X obj 214 107 stream 16000 200 2 100;
#X obj 214 133 stream 16000 200 2 100;
#X obj 214 159 stream 16000 200 2 100;
#X obj 214 185 stream 16000 200 2 100;
#X obj 214 211 stream 16000 200 2 100;
#X obj 214 237 stream 16000 200 2 100;
#X obj 214 263 stream 16000 200 2 100;
#X obj 214 289 stream 16000 200 2 100;
#X obj 214 315 stream 16000 200 2 100;
#X connect 0 0 5 0;
#X connect 0 0 6 0;
#X connect 0 0 7 0;
#X connect 0 0 8 0;
#X connect 0 0 9 0;
#X connect 0 0 10 0;
#X connect 0 0 11 0;
#X connect 0 0 12 0;
#X connect 0 0 13 0;
#X connect 0 0 14 0;
#X connect 1 0 5 1;
#X connect 1 1 6 1;
#X connect 1 2 7 1;
#X connect 1 3 8 1;
#X connect 1 4 9 1;
#X connect 1 5 10 1;
#X connect 1 6 11 1;
#X connect 1 7 12 1;
#X connect 1 8 13 1;
#X connect 1 9 14 1;
#X connect 2 0 0 0;
#X connect 3 0 0 0;
#X connect 4 0 1 0;
#X restore 562 106 pd water_drops_high;
#N canvas 0 472 1257 411 water_drops_normal 0;
#X obj 242 55 snapshot~;
#X obj 349 55 route 1 2 3 4 5 6 7 8 9 10;
#X obj 242 3 r bang_from_metro;
#X obj 251 29 r~ to_snapshot;
#X obj 349 29 r to_route_2;
#X obj 214 81 stream 16000 200 6 300;
#X obj 214 107 stream 16000 200 6 300;
#X obj 214 133 stream 16000 200 6 300;
#X obj 214 159 stream 16000 200 6 300;
#X obj 214 185 stream 16000 200 6 300;
#X obj 214 211 stream 16000 200 6 300;
#X obj 214 237 stream 16000 200 6 300;
#X obj 214 263 stream 16000 200 6 300;
#X obj 214 289 stream 16000 200 6 300;
#X obj 214 315 stream 16000 200 6 300;
#X connect 0 0 5 0;
#X connect 0 0 6 0;
#X connect 0 0 7 0;
#X connect 0 0 8 0;
#X connect 0 0 9 0;
#X connect 0 0 10 0;
#X connect 0 0 11 0;
#X connect 0 0 12 0;
#X connect 0 0 13 0;
#X connect 0 0 14 0;
#X connect 1 0 5 1;
#X connect 1 1 6 1;
#X connect 1 2 7 1;
#X connect 1 3 8 1;
#X connect 1 4 9 1;
#X connect 1 5 10 1;
#X connect 1 6 11 1;
#X connect 1 7 12 1;
#X connect 1 8 13 1;
#X connect 1 9 14 1;
#X connect 2 0 0 0;
#X connect 3 0 0 0;
#X connect 4 0 1 0;
#X restore 550 80 pd water_drops_normal;
#X obj 367 34 pack f f;
#X obj 367 60 s to_route_3;
#X msg 351 -18 24;
#X obj 412 8 + 24;
#X obj 212 193 hip~ 300;
#X obj 114 193 hip~ 300;
#X obj 212 219 bp~ 1200 18;
#X obj 114 219 bp~ 1200 18;
#X msg 112 -44 60 2500;
#X text 156 337 <- audio on/off;
#X obj 114 271 freezeverb 200;
#X obj 212 271 freezeverb 300;
#N canvas 0 22 450 561 pad_synth 0;
#X obj 168 366 osc~;
#X obj 168 314 +~;
#X obj 228 288 *~;
#X msg 168 262 \$1 2500;
#X obj 299 366 osc~;
#X obj 299 314 +~;
#X obj 243 262 *~ 2000;
#X obj 168 340 +~;
#X obj 299 340 +~;
#X obj 228 314 osc~ 4;
#X obj 228 340 *~ 30;
#X msg 299 262 \$1 2000;
#X obj 168 418 b~;
#X obj 299 418 b~;
#X obj 243 236 +~ 1;
#X obj 243 210 osc~ 0.05;
#X obj 168 158 route 1 2;
#X obj 168 288 line~;
#X obj 299 288 line~;
#X obj 228 184 osc~ 1864;
#X obj 168 236 mtof;
#X obj 299 236 mtof;
#X obj 168 132 r to_route_3;
#X obj 168 448 outlet~ L;
#X obj 299 448 outlet~ R;
#X obj 299 392 *~ 4e-05;
#X obj 168 392 *~ 4e-05;
#X connect 0 0 26 0;
#X connect 1 0 7 0;
#X connect 2 0 1 1;
#X connect 2 0 5 1;
#X connect 3 0 17 0;
#X connect 4 0 25 0;
#X connect 5 0 8 0;
#X connect 6 0 2 1;
#X connect 7 0 0 0;
#X connect 8 0 4 0;
#X connect 9 0 10 0;
#X connect 10 0 7 1;
#X connect 10 0 8 1;
#X connect 11 0 18 0;
#X connect 12 0 23 0;
#X connect 13 0 24 0;
#X connect 14 0 6 0;
#X connect 15 0 14 0;
#X connect 16 0 20 0;
#X connect 16 1 21 0;
#X connect 17 0 1 0;
#X connect 18 0 5 0;
#X connect 19 0 2 0;
#X connect 20 0 3 0;
#X connect 21 0 11 0;
#X connect 22 0 16 0;
#X connect 25 0 13 0;
#X connect 26 0 12 0;
#X restore 124 245 pd pad_synth;
#X obj 37 271 *~;
#X obj 310 271 *~;
#X obj 52 219 - 24;
#X obj 52 245 / 12;
#X obj 129 141 / 24;
#X obj 212 167 *~;
#X obj 114 167 *~;
#X obj 114 326 on_off;
#X obj 453 289 inlet;
#X obj 453 311 tgl 15 0 empty empty empty 17 7 0 10 -262144 -1 -1 0
1;
#X connect 0 0 20 0;
#X connect 1 0 2 0;
#X connect 1 0 13 0;
#X connect 2 0 34 0;
#X connect 3 0 0 0;
#X connect 4 0 30 0;
#X connect 5 0 31 0;
#X connect 6 0 7 0;
#X connect 6 0 8 0;
#X connect 6 0 40 0;
#X connect 6 0 48 0;
#X connect 7 0 6 1;
#X connect 8 0 43 0;
#X connect 9 0 6 1;
#X connect 11 0 8 1;
#X connect 11 0 41 0;
#X connect 11 0 51 0;
#X connect 12 0 26 0;
#X connect 13 0 5 0;
#X connect 13 0 21 0;
#X connect 14 0 58 1;
#X connect 14 0 59 1;
#X connect 16 0 15 0;
#X connect 17 0 15 0;
#X connect 18 0 29 0;
#X connect 19 0 18 0;
#X connect 20 0 23 0;
#X connect 21 0 32 0;
#X connect 22 0 23 1;
#X connect 22 0 63 0;
#X connect 23 0 33 0;
#X connect 24 0 27 0;
#X connect 26 0 11 0;
#X connect 28 0 15 0;
#X connect 29 0 11 1;
#X connect 30 0 6 0;
#X connect 30 1 12 0;
#X connect 30 2 19 0;
#X connect 31 0 4 0;
#X connect 31 1 9 0;
#X connect 31 2 37 0;
#X connect 32 0 45 0;
#X connect 32 1 56 0;
#X connect 35 0 36 0;
#X connect 35 1 50 0;
#X connect 36 0 29 1;
#X connect 37 0 35 0;
#X connect 38 0 61 0;
#X connect 38 0 67 0;
#X connect 39 0 62 0;
#X connect 39 0 66 0;
#X connect 40 0 42 0;
#X connect 41 0 40 1;
#X connect 45 0 22 0;
#X connect 48 0 49 0;
#X connect 50 0 29 1;
#X connect 51 0 48 1;
#X connect 52 0 54 0;
#X connect 53 0 55 0;
#X connect 54 0 59 0;
#X connect 55 0 58 0;
#X connect 56 0 22 0;
#X connect 58 0 68 0;
#X connect 58 1 68 1;
#X connect 59 0 68 1;
#X connect 59 1 68 0;
#X connect 60 0 58 0;
#X connect 60 1 59 0;
#X connect 61 0 68 0;
#X connect 62 0 68 1;
#X connect 63 0 64 0;
#X connect 64 0 61 1;
#X connect 64 0 62 1;
#X connect 64 0 65 0;
#X connect 65 0 67 1;
#X connect 65 0 66 1;
#X connect 66 0 52 0;
#X connect 67 0 53 0;
#X connect 68 0 15 0;
#X connect 68 1 15 1;
#X connect 69 0 70 0;
#X connect 70 0 68 2;
