#N canvas 549 166 675 660 10;
#X obj 110 110 tgl 15 0 empty empty empty 17 7 0 10 -262144 -1 -1 0
1;
#X obj 68 150 moses 1;
#X msg 6 176 0 0;
#X obj 35 202 line~;
#X obj 20 228 *~;
#X obj 88 228 *~;
#X obj 20 74 inlet~ L;
#X obj 88 74 inlet~ R;
#X obj 20 360 outlet~ L;
#X obj 88 360 outlet~ R;
#X obj 6 150 loadbang;
#X obj 204 335 dac~;
#X obj 228 73 inlet;
#X obj 204 299 *~;
#X obj 284 299 *~;
#X obj 340 184 vsl 20 50 0 2 0 0 empty empty empty 0 -9 0 10 -257985
-1 -1 2940 1;
#X obj 340 135 loadbang;
#X floatatom 340 242 5 0 0 0 - - -;
#X msg 107 176 1 1000;
#X msg 35 176 0 3000;
#X msg 340 161 1.2;
#X connect 0 0 1 0;
#X connect 1 0 19 0;
#X connect 1 1 18 0;
#X connect 2 0 3 0;
#X connect 3 0 4 1;
#X connect 3 0 5 1;
#X connect 4 0 8 0;
#X connect 4 0 13 0;
#X connect 5 0 9 0;
#X connect 5 0 14 0;
#X connect 6 0 4 0;
#X connect 7 0 5 0;
#X connect 10 0 2 0;
#X connect 12 0 0 0;
#X connect 13 0 11 0;
#X connect 14 0 11 1;
#X connect 15 0 17 0;
#X connect 16 0 20 0;
#X connect 17 0 14 1;
#X connect 17 0 13 1;
#X connect 18 0 3 0;
#X connect 19 0 3 0;
#X connect 20 0 15 0;
#X coords 0 -1 1 1 35 35 2 100 100;
