#N canvas 191 103 1415 700 10;
#X obj 177 775 dac~;
#X obj 672 146 mtof;
#X obj 496 18 trigger bang bang;
#X obj 325 122 + 1;
#X obj 270 171 mod 4;
#X obj 270 193 select 0 1 2 3;
#X msg 285 95 0;
#X obj 270 149 trigger float float;
#X obj 253 122 float;
#X obj 672 186 send freq;
#X obj 219 452 line~;
#X msg 162 222 bang;
#X msg 245 428 0 2000;
#X obj 194 476 *~;
#X obj 161 405 osc~;
#X msg 196 428 0.25 10;
#X obj 213 403 delay 10;
#X obj 161 383 float;
#X obj 142 360 receive freq;
#X obj 123 428 *~;
#X obj 94 362 osc~;
#X obj 93 340 line~;
#X obj 13 252 trigger bang bang;
#X msg 46 317 0.01 2000;
#X obj 94 384 *~ 0.5;
#X obj 94 406 +~ 1;
#X obj 112 296 + 1;
#X msg 112 318 \$1;
#X obj 433 452 line~;
#X msg 376 222 bang;
#X msg 459 428 0 2000;
#X obj 408 476 *~;
#X obj 375 405 osc~;
#X msg 410 428 0.25 10;
#X obj 427 403 delay 10;
#X obj 375 383 float;
#X obj 356 360 receive freq;
#X obj 337 428 *~;
#X obj 308 362 osc~;
#X obj 307 340 line~;
#X obj 227 252 trigger bang bang;
#X msg 260 317 0.01 2000;
#X obj 308 384 *~ 0.5;
#X obj 308 406 +~ 1;
#X obj 326 296 + 1;
#X msg 326 318 \$1;
#X obj 673 452 line~;
#X msg 616 222 bang;
#X msg 699 428 0 2000;
#X obj 648 476 *~;
#X obj 615 405 osc~;
#X msg 650 428 0.25 10;
#X obj 667 403 delay 10;
#X obj 615 383 float;
#X obj 596 360 receive freq;
#X obj 577 428 *~;
#X obj 548 362 osc~;
#X obj 547 340 line~;
#X obj 467 252 trigger bang bang;
#X msg 500 317 0.01 2000;
#X obj 548 384 *~ 0.5;
#X obj 548 406 +~ 1;
#X obj 566 296 + 1;
#X msg 566 318 \$1;
#X obj 903 451 line~;
#X msg 846 221 bang;
#X msg 929 427 0 2000;
#X obj 878 475 *~;
#X obj 845 404 osc~;
#X msg 880 427 0.25 10;
#X obj 897 402 delay 10;
#X obj 845 382 float;
#X obj 826 359 receive freq;
#X obj 807 427 *~;
#X obj 778 361 osc~;
#X obj 777 339 line~;
#X obj 697 251 trigger bang bang;
#X msg 730 316 0.01 2000;
#X obj 778 383 *~ 0.5;
#X obj 778 405 +~ 1;
#X obj 796 295 + 1;
#X msg 796 317 \$1;
#X text 26 61 This whole thing makes the drops sounds;
#X msg 437 1 bang;
#X obj 112 274 random 10;
#X obj 326 274 random 10;
#X obj 566 274 random 10;
#X obj 796 273 random 10;
#X obj 775 41 random 9;
#X obj 775 63 select 0 1 2 3 4 5 6 7 8;
#X msg 716 93 64;
#X msg 779 93 71;
#X msg 811 93 73;
#X msg 844 93 74;
#X msg 748 93 66;
#X msg 879 93 76;
#X msg 913 93 78;
#X msg 952 95 81;
#X msg 992 94 83;
#X obj 496 -30 inlet;
#X text 495 -49 comment;
#X obj 124 709 *~;
#X obj 37 568 vsl 20 50 0 1 0 0 empty empty empty 0 -9 0 10 -257985
-1 -1 2940 1;
#X obj 284 709 *~;
#X obj 37 519 loadbang;
#X floatatom 37 626 5 0 0 0 - - -;
#X floatatom 672 167 5 0 0 0 - - -;
#X floatatom 639 82 5 0 0 0 - - -;
#X obj 639 62 + 40;
#X obj 639 41 random 55;
#X msg 37 545 0.6;
#X connect 1 0 106 0;
#X connect 2 0 8 0;
#X connect 2 1 109 0;
#X connect 3 0 8 1;
#X connect 4 0 5 0;
#X connect 5 0 11 0;
#X connect 5 1 29 0;
#X connect 5 2 47 0;
#X connect 5 3 6 0;
#X connect 5 3 65 0;
#X connect 6 0 8 1;
#X connect 7 0 4 0;
#X connect 7 1 3 0;
#X connect 8 0 7 0;
#X connect 10 0 13 1;
#X connect 11 0 15 0;
#X connect 11 0 16 0;
#X connect 11 0 17 0;
#X connect 11 0 22 0;
#X connect 12 0 10 0;
#X connect 13 0 101 0;
#X connect 14 0 19 1;
#X connect 15 0 10 0;
#X connect 16 0 12 0;
#X connect 17 0 14 0;
#X connect 18 0 17 1;
#X connect 19 0 13 0;
#X connect 20 0 24 0;
#X connect 21 0 20 0;
#X connect 22 0 23 0;
#X connect 22 1 84 0;
#X connect 23 0 21 0;
#X connect 24 0 25 0;
#X connect 25 0 19 0;
#X connect 26 0 27 0;
#X connect 27 0 21 0;
#X connect 28 0 31 1;
#X connect 29 0 33 0;
#X connect 29 0 34 0;
#X connect 29 0 35 0;
#X connect 29 0 40 0;
#X connect 30 0 28 0;
#X connect 31 0 103 0;
#X connect 32 0 37 1;
#X connect 33 0 28 0;
#X connect 34 0 30 0;
#X connect 35 0 32 0;
#X connect 36 0 35 1;
#X connect 37 0 31 0;
#X connect 38 0 42 0;
#X connect 39 0 38 0;
#X connect 40 0 41 0;
#X connect 40 1 85 0;
#X connect 41 0 39 0;
#X connect 42 0 43 0;
#X connect 43 0 37 0;
#X connect 44 0 45 0;
#X connect 45 0 39 0;
#X connect 46 0 49 1;
#X connect 47 0 51 0;
#X connect 47 0 52 0;
#X connect 47 0 53 0;
#X connect 47 0 58 0;
#X connect 48 0 46 0;
#X connect 49 0 101 0;
#X connect 50 0 55 1;
#X connect 51 0 46 0;
#X connect 52 0 48 0;
#X connect 53 0 50 0;
#X connect 54 0 53 1;
#X connect 55 0 49 0;
#X connect 56 0 60 0;
#X connect 57 0 56 0;
#X connect 58 0 59 0;
#X connect 58 1 86 0;
#X connect 59 0 57 0;
#X connect 60 0 61 0;
#X connect 61 0 55 0;
#X connect 62 0 63 0;
#X connect 63 0 57 0;
#X connect 64 0 67 1;
#X connect 65 0 69 0;
#X connect 65 0 70 0;
#X connect 65 0 71 0;
#X connect 65 0 76 0;
#X connect 66 0 64 0;
#X connect 67 0 103 0;
#X connect 68 0 73 1;
#X connect 69 0 64 0;
#X connect 70 0 66 0;
#X connect 71 0 68 0;
#X connect 72 0 71 1;
#X connect 73 0 67 0;
#X connect 74 0 78 0;
#X connect 75 0 74 0;
#X connect 76 0 77 0;
#X connect 76 1 87 0;
#X connect 77 0 75 0;
#X connect 78 0 79 0;
#X connect 79 0 73 0;
#X connect 80 0 81 0;
#X connect 81 0 75 0;
#X connect 83 0 2 0;
#X connect 84 0 26 0;
#X connect 85 0 44 0;
#X connect 86 0 62 0;
#X connect 87 0 80 0;
#X connect 88 0 89 0;
#X connect 89 0 94 0;
#X connect 89 0 90 0;
#X connect 89 1 91 0;
#X connect 89 2 92 0;
#X connect 89 3 93 0;
#X connect 89 4 95 0;
#X connect 89 5 96 0;
#X connect 89 7 97 0;
#X connect 89 8 98 0;
#X connect 90 0 1 0;
#X connect 91 0 1 0;
#X connect 92 0 1 0;
#X connect 93 0 1 0;
#X connect 94 0 1 0;
#X connect 95 0 1 0;
#X connect 96 0 1 0;
#X connect 97 0 1 0;
#X connect 98 0 1 0;
#X connect 99 0 2 0;
#X connect 101 0 0 0;
#X connect 102 0 105 0;
#X connect 103 0 0 1;
#X connect 104 0 110 0;
#X connect 105 0 101 1;
#X connect 105 0 103 1;
#X connect 106 0 9 0;
#X connect 107 0 1 0;
#X connect 108 0 107 0;
#X connect 109 0 108 0;
#X connect 110 0 102 0;
