#N canvas 788 282 1129 1042 10;
#X declare -lib moocow;
#X obj 296 -175 tgl 15 0 empty empty empty 17 7 0 10 -262144 -1 -1
1 1;
#X obj 296 -150 Rain/main;
#X msg 296 -243 bang;
#X text 293 -271 Rain;
#X text 24 -26 Drop;
#X msg 26 -3 bang;
#X obj 26 24 drop;
#X obj 296 -209 + 1;
#X text 74 -26 birds;
#N canvas 1514 604 710 671 birds 0;
#X msg 37 -97 bang;
#X obj 96 -158 inlet;
#X text 275 -167 comment;
#X obj 96 -80 trigger bang;
#X obj 96 -15 select 0 1 2 3 4 5 6 7 8 9;
#X obj 97 361 readsf~;
#X obj 96 213 bng 15 250 50 0 empty empty empty 0 -6 0 8 -24198 -1
-1;
#X msg 97 230 open sound/b0.wav \, 1;
#X obj 112 189 bng 15 250 50 0 empty empty empty 0 -6 0 8 -24198 -1
-1;
#X obj 132 168 bng 15 250 50 0 empty empty empty 0 -6 0 8 -24198 -1
-1;
#X obj 152 146 bng 15 250 50 0 empty empty empty 0 -6 0 8 -24198 -1
-1;
#X obj 172 124 bng 15 250 50 0 empty empty empty 0 -6 0 8 -24198 -1
-1;
#X obj 191 102 bng 15 250 50 0 empty empty empty 0 -6 0 8 -24198 -1
-1;
#X obj 211 81 bng 15 250 50 0 empty empty empty 0 -6 0 8 -24198 -1
-1;
#X obj 231 59 bng 15 250 50 0 empty empty empty 0 -6 0 8 -24198 -1
-1;
#X obj 251 37 bng 15 250 50 0 empty empty empty 0 -6 0 8 -24198 -1
-1;
#X msg 113 206 open sound/b1.wav \, 1;
#X msg 133 185 open sound/b2.wav \, 1;
#X msg 154 164 open sound/b3.wav \, 1;
#X msg 173 141 open sound/b4.wav \, 1;
#X msg 192 119 open sound/b5.wav \, 1;
#X msg 212 98 open sound/b6.wav \, 1;
#X msg 232 76 open sound/b7.wav \, 1;
#X msg 252 54 open sound/b8.wav \, 1;
#X obj 270 16 bng 15 250 50 0 empty empty empty 0 -6 0 8 -24198 -1
-1;
#X msg 271 33 open sound/b9.wav \, 1;
#X obj 222 477 dac~;
#X obj 166 422 *~;
#X obj 246 422 *~;
#X obj 302 307 vsl 20 50 0 1 0 0 empty empty empty 0 -9 0 10 -257985
-1 -1 490 1;
#X obj 302 258 loadbang;
#X floatatom 302 365 5 0 0 0 - - -;
#X msg 302 284 0.1;
#X floatatom 96 -36 5 0 0 0 - - -;
#X obj 96 -57 random 9;
#X connect 0 0 3 0;
#X connect 1 0 3 0;
#X connect 3 0 34 0;
#X connect 4 0 6 0;
#X connect 4 1 8 0;
#X connect 4 2 9 0;
#X connect 4 3 10 0;
#X connect 4 4 11 0;
#X connect 4 5 12 0;
#X connect 4 6 13 0;
#X connect 4 7 14 0;
#X connect 4 8 15 0;
#X connect 4 9 24 0;
#X connect 5 0 27 0;
#X connect 5 0 28 0;
#X connect 6 0 7 0;
#X connect 7 0 5 0;
#X connect 8 0 16 0;
#X connect 9 0 17 0;
#X connect 10 0 18 0;
#X connect 11 0 19 0;
#X connect 12 0 20 0;
#X connect 13 0 21 0;
#X connect 14 0 22 0;
#X connect 15 0 23 0;
#X connect 16 0 5 0;
#X connect 17 0 5 0;
#X connect 18 0 5 0;
#X connect 19 0 5 0;
#X connect 20 0 5 0;
#X connect 21 0 5 0;
#X connect 22 0 5 0;
#X connect 23 0 5 0;
#X connect 24 0 25 0;
#X connect 25 0 5 0;
#X connect 27 0 26 0;
#X connect 28 0 26 1;
#X connect 29 0 31 0;
#X connect 30 0 32 0;
#X connect 31 0 28 1;
#X connect 31 0 27 1;
#X connect 32 0 29 0;
#X connect 33 0 4 0;
#X connect 34 0 33 0;
#X restore 76 23 pd birds;
#X msg 76 -3 bang;
#X msg 136 -3 bang;
#X text 134 -26 other;
#N canvas 1688 526 710 671 other 0;
#X msg 37 -97 bang;
#X obj 96 -158 inlet;
#X obj 96 -80 trigger bang;
#X obj 96 273 bng 15 250 50 0 empty empty empty 0 -6 0 8 -24198 -1
-1;
#X obj 116 246 bng 15 250 50 0 empty empty empty 0 -6 0 8 -24198 -1
-1;
#X msg 97 290 open sound/1.wav \, 1;
#X msg 118 263 open sound/2.wav \, 1;
#X obj 136 218 bng 15 250 50 0 empty empty empty 0 -6 0 8 -24198 -1
-1;
#X obj 157 421 readsf~;
#X obj 282 537 dac~;
#X obj 226 482 *~;
#X obj 306 482 *~;
#X obj 362 367 vsl 20 50 0 1 0 0 empty empty empty 0 -9 0 10 -257985
-1 -1 490 1;
#X obj 362 318 loadbang;
#X floatatom 362 425 5 0 0 0 - - -;
#X msg 362 343 0.1;
#X msg 137 235 open sound/3.wav \, 1;
#X obj 96 15 select 0 1 2;
#X floatatom 96 -12 5 0 0 0 - - -;
#X obj 96 -37 random 6;
#X connect 0 0 2 0;
#X connect 1 0 2 0;
#X connect 2 0 19 0;
#X connect 3 0 5 0;
#X connect 4 0 6 0;
#X connect 5 0 8 0;
#X connect 6 0 8 0;
#X connect 7 0 16 0;
#X connect 8 0 10 0;
#X connect 8 0 11 0;
#X connect 10 0 9 0;
#X connect 11 0 9 1;
#X connect 12 0 14 0;
#X connect 13 0 15 0;
#X connect 14 0 11 1;
#X connect 14 0 10 1;
#X connect 15 0 12 0;
#X connect 16 0 8 0;
#X connect 17 0 3 0;
#X connect 17 1 4 0;
#X connect 17 2 7 0;
#X connect 18 0 17 0;
#X connect 19 0 18 0;
#X restore 136 23 pd other;
#X msg 26 -153 bang;
#X msg 393 -17 bang;
#X text 392 -39 bgSound;
#X msg 23 -576 \; pd dsp 1;
#X obj 23 -603 loadbang;
#N canvas 1084 470 710 671 bg 0;
#X msg 37 -97 bang;
#X obj 96 -158 inlet;
#X obj 96 -80 trigger bang;
#X obj 96 193 bng 15 250 50 0 empty empty empty 0 -6 0 8 -24198 -1
-1;
#X obj 96 -37 random 4;
#X obj 118 163 bng 15 250 50 0 empty empty empty 0 -6 0 8 -24198 -1
-1;
#X obj 147 133 bng 15 250 50 0 empty empty empty 0 -6 0 8 -24198 -1
-1;
#X obj 177 103 bng 15 250 50 0 empty empty empty 0 -6 0 8 -24198 -1
-1;
#X msg 178 120 open sound/bg/huayang.wav \, 1;
#X obj 96 -15 select 0 1 2 3;
#X msg 148 150 open sound/bg/huayang2.wav \, 1;
#X msg 119 180 open sound/bg/huayangbass.wav \, 1;
#X msg 97 210 open sound/bg/huayangling.wav \, 1;
#X obj 159 325 readsf~;
#X obj 284 441 dac~;
#X obj 228 386 *~;
#X obj 308 386 *~;
#X obj 364 271 vsl 20 50 0 1 0 0 empty empty empty 0 -9 0 10 -257985
-1 -1 2450 1;
#X obj 364 222 loadbang;
#X floatatom 364 329 5 0 0 0 - - -;
#X msg 365 245 0.5;
#X connect 0 0 2 0;
#X connect 1 0 2 0;
#X connect 2 0 4 0;
#X connect 3 0 12 0;
#X connect 4 0 9 0;
#X connect 5 0 11 0;
#X connect 6 0 10 0;
#X connect 7 0 8 0;
#X connect 8 0 13 0;
#X connect 9 0 3 0;
#X connect 9 1 5 0;
#X connect 9 2 6 0;
#X connect 9 3 7 0;
#X connect 10 0 13 0;
#X connect 11 0 13 0;
#X connect 12 0 13 0;
#X connect 13 0 15 0;
#X connect 13 0 16 0;
#X connect 15 0 14 0;
#X connect 16 0 14 1;
#X connect 17 0 19 0;
#X connect 18 0 20 0;
#X connect 19 0 16 1;
#X connect 19 0 15 1;
#X connect 20 0 17 0;
#X restore 393 338 pd bg;
#X obj 393 10 random 10;
#X obj 393 32 select 0 1 2 3 4 5 6 7 8 9;
#X obj 393 256 delay 1000;
#X msg 393 306 bang;
#X msg 278 -91 bang;
#X obj 308 64 bng 15 250 50 0 empty empty empty 0 -6 0 8 -24198 -1
-1;
#X obj 280 64 bng 15 250 50 0 empty empty empty 0 -6 0 8 -258699 -1
-1;
#X text 275 -119 bgSound;
#X floatatom 280 13 5 0 0 0 - - -;
#X msg 305 -40 0;
#X obj 280 -14 float;
#X obj 336 -14 + 1;
#X obj 280 37 select 0 1;
#X obj 408 235 delay 2000;
#X obj 423 213 delay 3000;
#X obj 438 193 delay 4000;
#X obj 454 173 delay 5000;
#X obj 469 152 delay 6000;
#X obj 484 131 delay 7000;
#X obj 500 109 delay 8000;
#X obj 515 89 delay 9000;
#X obj 530 69 delay 10000;
#X obj 76 -69 select 0 1;
#X floatatom 76 -91 5 0 0 0 - - -;
#X obj 76 -114 random 4;
#X msg 26 -260 bang;
#X msg 107 -494 close;
#X floatatom 247 -493 5 0 255 0 - - -;
#X obj 151 -477 touche_serial;
#X floatatom 151 -445 5 0 0 0 - - -;
#X text 287 -504 0 = no smoothing \, fast updates;
#X text 288 -516 signal smoothing (0..255);
#X text 287 -491 255 = smooth signal \, very slow updates;
#X obj 247 -534 loadbang;
#X msg 247 -515 0.9;
#X msg 245 -571 devicename /dev/cu.usbmodem1411;
#X msg 245 -596 devicename /dev/cu.usbmodem1421;
#X obj 26 -336 change;
#X obj 26 -278 bng 15 250 50 0 empty empty empty 0 -6 0 8 -204800 -1
-1;
#X obj 305 -61 delay 6000;
#X obj 334 -209 delay 30000;
#X connect 0 0 1 0;
#X connect 2 0 7 0;
#X connect 2 0 60 0;
#X connect 5 0 6 0;
#X connect 7 0 0 0;
#X connect 10 0 9 0;
#X connect 11 0 13 0;
#X connect 14 0 5 0;
#X connect 14 0 44 0;
#X connect 15 0 20 0;
#X connect 18 0 17 0;
#X connect 20 0 21 0;
#X connect 21 0 22 0;
#X connect 21 1 33 0;
#X connect 21 2 34 0;
#X connect 21 3 35 0;
#X connect 21 4 36 0;
#X connect 21 5 37 0;
#X connect 21 6 38 0;
#X connect 21 7 39 0;
#X connect 21 8 40 0;
#X connect 21 9 41 0;
#X connect 22 0 23 0;
#X connect 23 0 19 0;
#X connect 24 0 30 0;
#X connect 24 0 59 0;
#X connect 25 0 15 0;
#X connect 28 0 32 0;
#X connect 29 0 30 0;
#X connect 30 0 31 0;
#X connect 30 0 28 0;
#X connect 31 0 30 1;
#X connect 32 0 26 0;
#X connect 32 1 25 0;
#X connect 33 0 23 0;
#X connect 34 0 23 0;
#X connect 35 0 23 0;
#X connect 36 0 23 0;
#X connect 37 0 23 0;
#X connect 38 0 23 0;
#X connect 39 0 23 0;
#X connect 40 0 23 0;
#X connect 41 0 23 0;
#X connect 42 0 10 0;
#X connect 42 1 11 0;
#X connect 43 0 42 0;
#X connect 44 0 43 0;
#X connect 45 0 14 0;
#X connect 45 0 24 0;
#X connect 45 0 2 0;
#X connect 46 0 48 0;
#X connect 47 0 48 0;
#X connect 48 0 49 0;
#X connect 49 0 57 0;
#X connect 53 0 54 0;
#X connect 54 0 47 0;
#X connect 55 0 48 0;
#X connect 56 0 48 0;
#X connect 57 0 58 0;
#X connect 58 0 45 0;
#X connect 59 0 29 0;
#X connect 60 0 0 0;
