#N canvas 558 49 1129 1042 10;
#X declare -lib mrpeach;
#X obj 15 -435 import mrpeach;
#X obj 16 -400 dumpOSC 127.0.0.1 6666;
#X obj 556 -315 tgl 15 0 empty empty empty 17 7 0 10 -262144 -1 -1
1 1;
#X obj 556 -290 Rain/main;
#X msg 556 -383 bang;
#X text 553 -411 Rain;
#X text 14 -166 Drop;
#X msg 16 -133 bang;
#X obj 16 -86 drop;
#X obj 556 -349 + 1;
#X obj 594 -349 delay 100000;
#X text 114 -166 birds;
#N canvas 424 107 710 671 birds 0;
#X msg 37 -97 bang;
#X obj 96 -158 inlet;
#X text 275 -167 comment;
#X obj 96 -80 trigger bang;
#X obj 96 -37 random 10;
#X obj 96 -15 select 0 1 2 3 4 5 6 7 8 9;
#X obj 97 361 readsf~;
#X obj 96 213 bng 15 250 50 0 empty empty empty 0 -6 0 8 -24198 -1
-1;
#X msg 97 230 open sound/b0.wav \, 1;
#X obj 112 189 bng 15 250 50 0 empty empty empty 0 -6 0 8 -24198 -1
-1;
#X obj 132 168 bng 15 250 50 0 empty empty empty 0 -6 0 8 -24198 -1
-1;
#X obj 152 146 bng 15 250 50 0 empty empty empty 0 -6 0 8 -24198 -1
-1;
#X obj 172 124 bng 15 250 50 0 empty empty empty 0 -6 0 8 -24198 -1
-1;
#X obj 191 102 bng 15 250 50 0 empty empty empty 0 -6 0 8 -24198 -1
-1;
#X obj 211 81 bng 15 250 50 0 empty empty empty 0 -6 0 8 -24198 -1
-1;
#X obj 231 59 bng 15 250 50 0 empty empty empty 0 -6 0 8 -24198 -1
-1;
#X obj 251 37 bng 15 250 50 0 empty empty empty 0 -6 0 8 -24198 -1
-1;
#X msg 113 206 open sound/b1.wav \, 1;
#X msg 133 185 open sound/b2.wav \, 1;
#X msg 154 164 open sound/b3.wav \, 1;
#X msg 173 141 open sound/b4.wav \, 1;
#X msg 192 119 open sound/b5.wav \, 1;
#X msg 212 98 open sound/b6.wav \, 1;
#X msg 232 76 open sound/b7.wav \, 1;
#X msg 252 54 open sound/b8.wav \, 1;
#X obj 270 16 bng 15 250 50 0 empty empty empty 0 -6 0 8 -24198 -1
-1;
#X msg 271 33 open sound/b9.wav \, 1;
#X obj 222 477 dac~;
#X obj 166 422 *~;
#X obj 246 422 *~;
#X obj 302 307 vsl 20 50 0 1 0 0 empty empty empty 0 -9 0 10 -257985
-1 -1 490 1;
#X obj 302 258 loadbang;
#X floatatom 302 365 5 0 0 0 - - -;
#X msg 302 284 0.1;
#X connect 0 0 3 0;
#X connect 1 0 3 0;
#X connect 3 0 4 0;
#X connect 4 0 5 0;
#X connect 5 0 7 0;
#X connect 5 1 9 0;
#X connect 5 2 10 0;
#X connect 5 3 11 0;
#X connect 5 4 12 0;
#X connect 5 5 13 0;
#X connect 5 6 14 0;
#X connect 5 7 15 0;
#X connect 5 8 16 0;
#X connect 5 9 25 0;
#X connect 6 0 28 0;
#X connect 6 0 29 0;
#X connect 7 0 8 0;
#X connect 8 0 6 0;
#X connect 9 0 17 0;
#X connect 10 0 18 0;
#X connect 11 0 19 0;
#X connect 12 0 20 0;
#X connect 13 0 21 0;
#X connect 14 0 22 0;
#X connect 15 0 23 0;
#X connect 16 0 24 0;
#X connect 17 0 6 0;
#X connect 18 0 6 0;
#X connect 19 0 6 0;
#X connect 20 0 6 0;
#X connect 21 0 6 0;
#X connect 22 0 6 0;
#X connect 23 0 6 0;
#X connect 24 0 6 0;
#X connect 25 0 26 0;
#X connect 26 0 6 0;
#X connect 28 0 27 0;
#X connect 29 0 27 1;
#X connect 30 0 32 0;
#X connect 31 0 33 0;
#X connect 32 0 29 1;
#X connect 32 0 28 1;
#X connect 33 0 30 0;
#X restore 116 -87 pd birds;
#X msg 116 -133 bang;
#X msg 236 -133 bang;
#X text 234 -166 other;
#N canvas 721 122 710 671 other 0;
#X msg 37 -97 bang;
#X obj 96 -158 inlet;
#X obj 96 -80 trigger bang;
#X obj 96 273 bng 15 250 50 0 empty empty empty 0 -6 0 8 -24198 -1
-1;
#X obj 116 246 bng 15 250 50 0 empty empty empty 0 -6 0 8 -24198 -1
-1;
#X msg 97 290 open sound/1.wav \, 1;
#X msg 118 263 open sound/2.wav \, 1;
#X obj 136 218 bng 15 250 50 0 empty empty empty 0 -6 0 8 -24198 -1
-1;
#X obj 156 191 bng 15 250 50 0 empty empty empty 0 -6 0 8 -24198 -1
-1;
#X obj 157 421 readsf~;
#X obj 282 537 dac~;
#X obj 226 482 *~;
#X obj 306 482 *~;
#X obj 362 367 vsl 20 50 0 1 0 0 empty empty empty 0 -9 0 10 -257985
-1 -1 490 1;
#X obj 362 318 loadbang;
#X floatatom 362 425 5 0 0 0 - - -;
#X msg 362 343 0.1;
#X obj 177 166 bng 15 250 50 0 empty empty empty 0 -6 0 8 -24198 -1
-1;
#X obj 197 139 bng 15 250 50 0 empty empty empty 0 -6 0 8 -24198 -1
-1;
#X obj 217 111 bng 15 250 50 0 empty empty empty 0 -6 0 8 -24198 -1
-1;
#X obj 96 -37 random 7;
#X obj 96 -15 select 0 1 2 3 4 5 6;
#X msg 137 235 open sound/3.wav \, 1;
#X msg 157 208 open sound/4.wav \, 1;
#X msg 178 183 open sound/5.wav \, 1;
#X msg 198 155 open sound/6.wav \, 1;
#X msg 218 128 open sound/7.wav \, 1;
#X connect 0 0 2 0;
#X connect 1 0 2 0;
#X connect 2 0 20 0;
#X connect 3 0 5 0;
#X connect 4 0 6 0;
#X connect 5 0 9 0;
#X connect 6 0 9 0;
#X connect 7 0 22 0;
#X connect 8 0 23 0;
#X connect 9 0 11 0;
#X connect 9 0 12 0;
#X connect 11 0 10 0;
#X connect 12 0 10 1;
#X connect 13 0 15 0;
#X connect 14 0 16 0;
#X connect 15 0 12 1;
#X connect 15 0 11 1;
#X connect 16 0 13 0;
#X connect 17 0 24 0;
#X connect 18 0 25 0;
#X connect 19 0 26 0;
#X connect 20 0 21 0;
#X connect 21 0 3 0;
#X connect 21 1 4 0;
#X connect 21 2 7 0;
#X connect 21 3 8 0;
#X connect 21 4 17 0;
#X connect 21 5 18 0;
#X connect 21 6 19 0;
#X connect 22 0 9 0;
#X connect 23 0 9 0;
#X connect 24 0 9 0;
#X connect 25 0 9 0;
#X connect 26 0 9 0;
#X restore 236 -87 pd other;
#X msg 16 -333 bang;
#X msg 853 -141 bang;
#X text 850 -169 bgSound;
#X msg 18 -475 \; pd dsp 1;
#X obj 18 -502 loadbang;
#N canvas 243 262 710 671 bg 0;
#X msg 37 -97 bang;
#X obj 96 -158 inlet;
#X obj 96 -80 trigger bang;
#X obj 96 193 bng 15 250 50 0 empty empty empty 0 -6 0 8 -24198 -1
-1;
#X obj 96 -37 random 4;
#X obj 118 163 bng 15 250 50 0 empty empty empty 0 -6 0 8 -24198 -1
-1;
#X obj 147 133 bng 15 250 50 0 empty empty empty 0 -6 0 8 -24198 -1
-1;
#X obj 177 103 bng 15 250 50 0 empty empty empty 0 -6 0 8 -24198 -1
-1;
#X msg 178 120 open sound/bg/huayang.wav \, 1;
#X obj 96 -15 select 0 1 2 3;
#X msg 148 150 open sound/bg/huayang2.wav \, 1;
#X msg 119 180 open sound/bg/huayangbass.wav \, 1;
#X msg 97 210 open sound/bg/huayangling.wav \, 1;
#X obj 159 325 readsf~;
#X obj 284 441 dac~;
#X obj 228 386 *~;
#X obj 308 386 *~;
#X obj 364 271 vsl 20 50 0 1 0 0 empty empty empty 0 -9 0 10 -257985
-1 -1 2450 1;
#X obj 364 222 loadbang;
#X floatatom 364 329 5 0 0 0 - - -;
#X msg 365 245 0.5;
#X connect 0 0 2 0;
#X connect 1 0 2 0;
#X connect 2 0 4 0;
#X connect 3 0 12 0;
#X connect 4 0 9 0;
#X connect 5 0 11 0;
#X connect 6 0 10 0;
#X connect 7 0 8 0;
#X connect 8 0 13 0;
#X connect 9 0 3 0;
#X connect 9 1 5 0;
#X connect 9 2 6 0;
#X connect 9 3 7 0;
#X connect 10 0 13 0;
#X connect 11 0 13 0;
#X connect 12 0 13 0;
#X connect 13 0 15 0;
#X connect 13 0 16 0;
#X connect 15 0 14 0;
#X connect 16 0 14 1;
#X connect 17 0 19 0;
#X connect 18 0 20 0;
#X connect 19 0 16 1;
#X connect 19 0 15 1;
#X connect 20 0 17 0;
#X restore 853 244 pd bg;
#X obj 853 -114 random 10;
#X obj 853 -92 select 0 1 2 3 4 5 6 7 8 9;
#X obj 853 162 delay 1000;
#X msg 853 212 bang;
#X msg 568 -171 bang;
#X obj 602 14 bng 15 250 50 0 empty empty empty 0 -6 0 8 -24198 -1
-1;
#X obj 571 14 bng 15 250 50 0 empty empty empty 0 -6 0 8 -258699 -1
-1;
#X text 565 -199 bgSound;
#X floatatom 570 -47 5 0 0 0 - - -;
#X msg 655 -100 0;
#X obj 570 -74 float;
#X obj 626 -74 + 1;
#X obj 570 -23 select 0 1;
#X obj 16 -305 random 3;
#X obj 16 -283 select 0 1 2;
#X obj 868 141 delay 2000;
#X obj 883 119 delay 3000;
#X obj 898 99 delay 4000;
#X obj 914 79 delay 5000;
#X obj 929 58 delay 6000;
#X obj 944 37 delay 7000;
#X obj 959 15 delay 8000;
#X obj 974 -5 delay 9000;
#X obj 990 -25 delay 10000;
#X obj 655 -121 delay 10000;
#X connect 1 0 4 0;
#X connect 1 0 17 0;
#X connect 1 0 27 0;
#X connect 2 0 3 0;
#X connect 4 0 9 0;
#X connect 4 0 10 0;
#X connect 7 0 8 0;
#X connect 9 0 2 0;
#X connect 10 0 2 0;
#X connect 13 0 12 0;
#X connect 14 0 16 0;
#X connect 17 0 36 0;
#X connect 18 0 23 0;
#X connect 21 0 20 0;
#X connect 23 0 24 0;
#X connect 24 0 25 0;
#X connect 24 1 38 0;
#X connect 24 2 39 0;
#X connect 24 3 40 0;
#X connect 24 4 41 0;
#X connect 24 5 42 0;
#X connect 24 6 43 0;
#X connect 24 7 44 0;
#X connect 24 8 45 0;
#X connect 24 9 46 0;
#X connect 25 0 26 0;
#X connect 26 0 22 0;
#X connect 27 0 33 0;
#X connect 27 0 47 0;
#X connect 28 0 18 0;
#X connect 31 0 35 0;
#X connect 32 0 33 0;
#X connect 33 0 34 0;
#X connect 33 0 31 0;
#X connect 34 0 33 1;
#X connect 35 0 29 0;
#X connect 35 1 28 0;
#X connect 36 0 37 0;
#X connect 37 0 7 0;
#X connect 37 1 13 0;
#X connect 37 2 14 0;
#X connect 38 0 26 0;
#X connect 39 0 26 0;
#X connect 40 0 26 0;
#X connect 41 0 26 0;
#X connect 42 0 26 0;
#X connect 43 0 26 0;
#X connect 44 0 26 0;
#X connect 45 0 26 0;
#X connect 46 0 26 0;
#X connect 47 0 32 0;
