#N canvas 1044 422 923 761 10;
#X obj 49 65 s freq;
#X obj 137 64 s gain;
#X obj 49 -20 random 5000;
#X obj 139 -20 random 9;
#X obj 139 7 / 10;
#X obj 137 35 + 0.1;
#X msg 49 -108 bang;
#X obj 49 7 + 1000;
#X obj 50 267 *~;
#X obj 65 242 line~;
#X obj 65 200 r attack;
#X obj 92 221 r sustain;
#X obj 50 143 r freq;
#X obj 50 178 osc~;
#X obj 65 292 r gain;
#X obj 50 316 *~;
#X obj 227 64 s attack;
#X obj 307 64 s sustain;
#X msg 227 -20 1;
#X msg 307 -20 0 10;
#X obj -31 -145 delay;
#X floatatom -4 -165 5 0 0 0 - - -;
#X msg 84 -253 bang;
#X obj 159 -145 delay;
#X floatatom 186 -165 5 0 0 0 - - -;
#X obj 186 -188 + 100;
#X obj -4 -188 + 50;
#X obj -4 -214 random 500;
#X obj 186 -214 random 500;
#X obj 84 -286 inlet;
#X obj 52 357 dac~;
#X connect 2 0 7 0;
#X connect 3 0 4 0;
#X connect 4 0 5 0;
#X connect 5 0 1 0;
#X connect 6 0 2 0;
#X connect 6 0 3 0;
#X connect 6 0 18 0;
#X connect 6 0 19 0;
#X connect 7 0 0 0;
#X connect 8 0 15 0;
#X connect 9 0 8 1;
#X connect 10 0 9 0;
#X connect 11 0 9 0;
#X connect 12 0 13 0;
#X connect 13 0 8 0;
#X connect 14 0 15 1;
#X connect 15 0 30 0;
#X connect 15 0 30 1;
#X connect 18 0 16 0;
#X connect 19 0 17 0;
#X connect 20 0 6 0;
#X connect 21 0 20 1;
#X connect 22 0 6 0;
#X connect 22 0 27 0;
#X connect 22 0 28 0;
#X connect 23 0 6 0;
#X connect 24 0 23 1;
#X connect 25 0 24 0;
#X connect 26 0 21 0;
#X connect 27 0 20 0;
#X connect 27 0 26 0;
#X connect 28 0 23 0;
#X connect 28 0 25 0;
#X connect 29 0 22 0;
